<svg viewBox="0 0 700 700" xmlns="http://www.w3.org/2000/svg">
 <path d="m338.12 30.703c7.7852-2.0508 15.973-2.0508 23.758 0 9.0352 2.3789 16.703 8.1836 22.816 12.812 0.58203 0.4375 1.1523 0.86719 1.7031 1.2852l14.164 10.621c1.7812 1.3242 3.5859 2.6797 5.4219 4.0625 0.90625 0.67969 1.8164 1.3672 2.7383 2.0586 0.027344 0.019531 0.050782 0.039062 0.078125 0.058593l141.87 106.4c-0.003907 0 0 0 0 0l46.664 35c10.309 7.7305 12.402 22.355 4.668 32.668-7.7344 10.309-22.359 12.398-32.668 4.6641l-9.332-7v182.9c0 12.297 0 22.91-0.71484 31.648-0.75391 9.2266-2.418 18.402-6.9141 27.23-6.7109 13.172-17.418 23.879-30.59 30.59-8.832 4.5-18.004 6.1641-27.23 6.918-8.7383 0.71094-19.352 0.71094-31.648 0.71094h-225.8c-12.301 0-22.914 0-31.652-0.71094-9.2227-0.75391-18.398-2.418-27.23-6.918-13.168-6.7109-23.879-17.418-30.59-30.59-4.4961-8.8281-6.1602-18.004-6.9141-27.23-0.71484-8.7383-0.71484-19.352-0.71484-31.652v-182.9l-9.332 7c-10.312 7.7344-24.938 5.6445-32.668-4.6641-7.7305-10.312-5.6445-24.938 4.668-32.668l188.53-141.4c0.039062-0.03125 0.078125-0.058593 0.11719-0.089843 0.90625-0.67969 1.8086-1.3555 2.6992-2.0273 1.8359-1.3828 3.6406-2.7383 5.4219-4.0625l14.164-10.621c0.55078-0.41797 1.1211-0.84766 1.7031-1.2852 6.1133-4.6289 13.781-10.434 22.816-12.812zm-151.45 167.63v217c0 13.457 0.015625 22.141 0.55859 28.754 0.51563 6.3359 1.3945 8.6875 1.9844 9.8398 2.2344 4.3906 5.8047 7.9609 10.195 10.199 1.1562 0.58594 3.5039 1.4648 9.8438 1.9844 6.6094 0.53906 15.297 0.55859 28.75 0.55859h18.668v-150.08c-0.003907-5.8906-0.003907-11.625 0.39453-16.48 0.43359-5.3359 1.4648-11.629 4.6914-17.961 4.4727-8.7812 11.613-15.922 20.395-20.395 6.332-3.2266 12.625-4.2578 17.961-4.6914 4.8555-0.39844 10.59-0.39453 16.48-0.39453h66.82c5.8906 0 11.625-0.003907 16.48 0.39453 5.3359 0.43359 11.629 1.4648 17.961 4.6914 8.7812 4.4727 15.922 11.613 20.395 20.395 3.2266 6.332 4.2578 12.625 4.6914 17.961 0.39844 4.8555 0.39453 10.59 0.39453 16.48v150.08h18.668c13.453 0 22.137-0.019531 28.75-0.55859 6.3398-0.51953 8.6875-1.3984 9.8438-1.9844 4.3906-2.2383 7.957-5.8086 10.195-10.199 0.58984-1.1523 1.4688-3.5039 1.9883-9.8398 0.53906-6.6133 0.55469-15.297 0.55469-28.754v-217l-132.53-99.398c-17.727-13.297-21.523-15.621-24.859-16.5-3.8945-1.0234-7.9883-1.0234-11.883 0-3.3359 0.87891-7.1328 3.2031-24.859 16.5zm210 268.34v-149.34c0-6.918-0.019531-10.703-0.24219-13.426-0.007812-0.10547-0.019531-0.20703-0.023437-0.30469-0.10156-0.007812-0.20312-0.019531-0.30859-0.027343-2.7227-0.22266-6.5078-0.24219-13.426-0.24219h-65.336c-6.918 0-10.703 0.019531-13.426 0.24219-0.10547 0.007812-0.20703 0.019531-0.30469 0.027343-0.007812 0.097657-0.019531 0.19922-0.027343 0.30469-0.22266 2.7227-0.24219 6.5078-0.24219 13.426v149.34z" fill-rule="evenodd"/>
</svg>
